HIERARCHY
ROOT Hips
{
  OFFSET -33.9132 29.2015 117.021
  CHANNELS 6 Xposition Yposition Zposition Zrotation Xrotation Yrotation
  JOINT LeftUpLeg
  {
    OFFSET 8.64259 1.95398 -2.38835
    CHANNELS 3 Zrotation Xrotation Yrotation
    JOINT LeftLeg
    {
      OFFSET 43.7702 0 0
      CHANNELS 3 Zrotation Xrotation Yrotation
      JOINT LeftFoot
      {
        OFFSET 40.6238 0 0
        CHANNELS 3 Zrotation Xrotation Yrotation
        JOINT LeftToeBase
        {
          OFFSET 12.7242 0 0
          CHANNELS 3 Zrotation Xrotation Yrotation
          End Site
          {
            OFFSET 0 0 0
          }
        }
      }
    }
  }
  JOINT RightUpLeg
  {
    OFFSET -8.2249 1.95398 -2.59336
    CHANNELS 3 Zrotation Xrotation Yrotation
    JOINT RightLeg
    {
      OFFSET 43.5653 0 0
      CHANNELS 3 Zrotation Xrotation Yrotation
      JOINT RightFoot
      {
        OFFSET 40.6238 0 0
        CHANNELS 3 Zrotation Xrotation Yrotation
        JOINT RightToeBase
        {
          OFFSET 12.7242 0 0
          CHANNELS 3 Zrotation Xrotation Yrotation
          End Site
          {
            OFFSET 0 0 0
          }
        }
      }
    }
  }
  JOINT Spine
  {
    OFFSET 0.165834 0.87714 6.61349
    CHANNELS 3 Zrotation Xrotation Yrotation
    JOINT Spine1
    {
      OFFSET 7.38963 1.71661e-005 0
      CHANNELS 3 Zrotation Xrotation Yrotation
      JOINT Spine2
      {
        OFFSET 11.9445 1.14441e-005 0
        CHANNELS 3 Zrotation Xrotation Yrotation
        JOINT Spine3
        {
          OFFSET 14.7254 4.19617e-005 0
          CHANNELS 3 Zrotation Xrotation Yrotation
          JOINT Spine4
          {
            OFFSET 10.9679 0 0
            CHANNELS 3 Zrotation Xrotation Yrotation
            JOINT RightShoulder
            {
              OFFSET 2.46616 -1.6653 3.69651
              CHANNELS 3 Zrotation Xrotation Yrotation
              JOINT RightArm
              {
                OFFSET 13.0012 0 0
                CHANNELS 3 Zrotation Xrotation Yrotation
                JOINT RightForeArm
                {
                  OFFSET 28.7848 1.62311e-005 0
                  CHANNELS 3 Zrotation Xrotation Yrotation
                  JOINT RightHand
                  {
                    OFFSET 26.5688 1.62095e-005 0
                    CHANNELS 3 Zrotation Xrotation Yrotation
                    End Site
                    {
                      OFFSET 0 0 0
                    }
                  }
                }
              }
            }
            JOINT LeftShoulder
            {
              OFFSET 2.38034 -1.29275 -3.7523
              CHANNELS 3 Zrotation Xrotation Yrotation
              JOINT LeftArm
              {
                OFFSET 16.3182 6.07031e-005 0
                CHANNELS 3 Zrotation Xrotation Yrotation
                JOINT LeftForeArm
                {
                  OFFSET 27.0901 0 0
                  CHANNELS 3 Zrotation Xrotation Yrotation
                  JOINT LeftHand
                  {
                    OFFSET 24.5451 1.51738e-005 0
                    CHANNELS 3 Zrotation Xrotation Yrotation
                    End Site
                    {
                      OFFSET 0 0 0
                    }
                  }
                }
              }
            }
            JOINT Neck
            {
              OFFSET 5.0226 -0.0266342 0
              CHANNELS 3 Zrotation Xrotation Yrotation
              JOINT Head
              {
                OFFSET 6.69364 2.86102e-005 0
                CHANNELS 3 Zrotation Xrotation Yrotation
                End Site
                {
                  OFFSET 0 0 0
                }
              }
            }
          }
        }
      }
    }
  }
}
MOTION
Frames:	10
Frame Time:	0.0416667
39.8699 102.428 -251.991 -136.955 -81.3315 -138.386 -174.962 -5.46936 89.473 -6.49456 -8.90497 1.61543 65.8312 4.03212 -1.22243 19.5448 -9.21487 8.83635 171.671 -0.569895 85.925 -11.7528 0.358583 0.0402915 64.6044 -2.23097 1.61072 24.8303 1.01759 2.81487 0.384834 7.50277 -89.9152 11.8662 0.805247 0.0832383 0.195603 0.808133 0.0477 -22.342 0.742998 0.321409 -2.32937 0.742998 0.321403 91.8973 -26.326 -104.255 55.382 1.09779 -8.54047 -5.04807 -38.1137 -5.30888 -18.8393 1.5745 -15.0559 -87.7222 -42.6893 80.7458 -31.585 -5.60784 -18.8867 -12.0731 30.7949 -0.0222602 6.34392 -0.431734 -13.7095 2.57222 -0.989498 -1.91759 -3.14182 -0.66599 0.0928997 
39.76 102.437 -251.876 -141.111 -81.4886 -142.445 -174.689 -5.66878 89.8432 -6.80706 -8.01585 1.48427 66.2129 4.10771 -1.56963 20.0534 -8.79855 8.64459 171.608 -1.32725 86.0144 -11.0568 0.696295 0.137007 64.0764 -2.05529 1.12778 25.7716 0.71352 2.43099 0.283651 7.50352 -89.9822 11.8671 0.572478 -0.0256886 0.196287 0.570793 -0.050869 -22.3398 0.553725 0.147556 -2.32715 0.553729 0.147558 90.9424 -26.2826 -106.289 54.7723 1.80137 -7.47386 -4.81207 -34.0789 -5.19183 -15.6179 1.60446 -17.4327 -87.6718 -44.6325 81.2196 -29.2 -4.58319 -18.0438 -12.8938 30.0502 -0.0220909 5.97474 -0.413238 -13.8047 1.57079 -0.817487 -0.589131 -3.02871 -0.716412 -0.572162 
39.59 102.437 -251.694 -144.271 -81.8573 -145.451 -174.317 -5.68617 90.3468 -6.84877 -6.87943 1.24287 66.2297 4.18257 -1.18162 19.7969 -8.85723 8.47606 171.809 -1.86141 86.3263 -10.447 1.52997 0.0837473 63.9545 -1.98434 1.31657 25.6414 0.80051 2.3195 0.266141 7.5245 -89.9932 11.8252 0.532491 -0.0433144 0.154323 0.530074 -0.0667207 -22.3817 0.520886 0.118727 -2.36904 0.520888 0.118728 91.1369 -26.5363 -105.778 54.6625 1.80821 -7.59082 -4.91657 -35.9124 -5.24173 -18.9462 1.79662 -16.3538 -87.5138 -44.4276 81.4306 -29.4376 -4.70652 -18.2661 -12.8144 29.9382 -0.022066 5.93377 -0.407131 -13.7693 1.35313 -1.009 -0.887325 -2.4945 -0.863793 -0.490198 
39.4402 102.448 -251.471 -145.122 -81.8334 -146.275 -174.239 -6.46807 90.5111 -6.01145 -6.6666 1.23453 65.9903 4.132 -1.25112 20.4457 -8.59109 8.69336 171.838 -2.15765 86.4653 -10.4673 1.59144 0.0652822 64.3088 -2.19458 0.81172 25.1125 0.938568 2.6595 0.293347 7.54985 -90.0262 11.7746 0.571119 -0.112597 0.103728 0.565613 -0.137634 -22.4324 0.578558 0.0642632 -2.41977 0.578551 0.0642475 91.1324 -26.0657 -105.973 54.9032 1.72858 -7.50214 -4.87999 -35.2806 -5.22385 -19.3867 1.7772 -15.9767 -87.7343 -44.9682 81.1851 -29.0775 -4.76896 -18.2756 -12.8493 30.28 -0.0221425 4.74056 -0.305678 -14.4303 1.12453 -0.833979 -0.284935 -2.24427 -0.785298 -0.954663 
39.4194 102.453 -251.25 -145.023 -82.1236 -146.416 -174.665 -6.32098 90.0315 -5.60326 -6.86478 1.58684 65.5605 4.03128 -1.20861 20.3499 -8.65701 8.70874 171.774 -1.91136 86.2545 -10.65 1.81385 0.0509928 64.2817 -1.94976 1.00015 25.6897 0.61347 2.92321 0.285959 7.51653 -89.9814 11.841 0.577434 -0.0245788 0.170181 0.575791 -0.0499712 -22.366 0.558122 0.150112 -2.35331 0.558124 0.150102 91.0355 -26.8131 -105.883 54.1072 2.04929 -7.64567 -5.01113 -37.5073 -5.28953 -19.5106 1.58192 -14.7416 -87.7799 -44.8079 81.081 -29.137 -4.72592 -17.7147 -12.856 30.0548 -0.022092 5.00154 -0.292615 -13.7007 0.809608 -0.840437 -0.544253 -2.11652 -0.756348 -1.02841 
39.2929 102.44 -251.054 -143.989 -82.4108 -145.444 -174.791 -6.19461 89.9466 -5.47711 -7.27285 1.72146 65.7514 4.09029 -1.3329 20.2633 -8.54083 8.40969 171.979 -1.81297 86.3872 -10.456 1.58347 -0.0905886 64.1957 -1.85377 0.52899 25.7094 0.436562 3.53502 0.299045 7.51681 -89.9772 11.8404 0.605475 -0.0190394 0.169631 0.604052 -0.0456748 -22.3666 0.583205 0.163828 -2.35395 0.583197 0.163806 91.1122 -26.8351 -105.715 53.8445 2.08859 -7.87278 -5.05546 -38.2339 -5.31282 -19.2234 1.71929 -15.7226 -87.6679 -44.6734 81.2325 -29.1817 -4.68455 -17.743 -12.8503 30.3553 -0.0221595 4.27826 -0.267933 -14.6281 1.17057 -0.660569 -0.612762 -1.84112 -0.56713 -0.748514 
39.1519 102.449 -250.856 -143.416 -82.5247 -144.952 -174.841 -6.28786 89.9201 -5.34594 -7.12641 1.76347 65.676 4.02145 -1.31385 20.6834 -8.51203 8.80727 171.915 -1.71127 86.3608 -10.6998 2.01511 -0.0195105 64.5302 -1.8892 0.985304 25.2797 0.617006 3.54515 0.306397 7.51788 -89.9896 11.8384 0.614273 -0.0446723 0.167551 0.611715 -0.0716739 -22.3687 0.599299 0.142017 -2.35607 0.5993 0.142007 91.2248 -26.6 -105.57 54.1202 1.85945 -8.1369 -5.02214 -37.6899 -5.29524 -19.7726 1.66278 -15.0994 -87.787 -45.4894 81.2039 -28.3588 -4.73202 -18.0523 -12.9434 30.5472 -0.0222032 5.6889 -0.255968 -12.3998 1.25364 -0.604906 -0.0820931 -1.28048 -0.5987 -1.19657 
38.9449 102.454 -250.705 -141.16 -82.4443 -142.47 -174.657 -6.36194 90.2825 -5.19423 -7.2733 1.7761 65.5671 3.90244 -1.32904 20.9445 -8.20107 8.52745 172.135 -1.8342 86.7506 -10.4419 1.87167 -0.0454935 64.3959 -1.94076 0.768242 25.5634 0.325343 4.16471 0.298 7.52251 -90.0413 11.8294 0.573263 -0.143289 0.158587 0.566405 -0.168383 -22.3776 0.589821 0.0356288 -2.36493 0.589826 0.0356372 91.319 -26.2832 -105.494 54.3207 1.64889 -8.4407 -4.99579 -37.2524 -5.28162 -20.3321 1.75977 -15.3511 -87.6864 -46.1088 81.481 -28.1703 -5.34732 -17.9396 -12.6522 30.5977 -0.0222147 5.2631 -0.241831 -12.7181 2.02576 -0.497939 0.628459 -1.72596 -0.602777 -1.36668 
38.7197 102.417 -250.563 -136.66 -82.5921 -138.021 -174.574 -5.87929 90.3979 -5.29743 -7.53793 1.66614 65.7283 3.99037 -1.4437 20.7556 -8.42806 8.73422 172.155 -1.17834 86.8476 -10.9252 1.62342 0.0747556 64.7756 -2.11944 0.679405 25.0242 0.695359 3.65517 0.278807 7.51728 -90.0497 11.8398 0.531109 -0.155695 0.168921 0.523748 -0.17892 -22.3671 0.553342 0.0111291 -2.35446 0.553346 0.0111323 91.2189 -26.3544 -105.677 54.014 1.67278 -8.77003 -5.02187 -37.6871 -5.2951 -20.436 1.8621 -15.8767 -87.468 -46.4429 81.8871 -27.4491 -4.46111 -18.6299 -13.2296 29.341 -0.0219355 4.92302 -0.381485 -15.0309 2.82813 -0.423447 0.698632 -1.64652 -0.544647 -1.3263 
38.3673 102.401 -250.341 -134.194 -82.4445 -135.299 -173.96 -5.8795 91.0938 -5.45475 -7.28089 1.26372 65.7836 4.05432 -1.46264 21.1234 -8.19581 8.71159 172.461 -1.3312 87.3547 -10.8036 1.39183 0.0159633 64.7655 -2.2478 0.771119 25.7594 0.770299 2.24788 0.299722 7.50176 -90.0865 11.8711 0.555319 -0.2319 0.200234 0.544587 -0.256123 -22.3359 0.599352 -0.054269 -2.32321 0.599345 -0.0542787 91.276 -26.487 -105.505 53.8872 1.80125 -8.59056 -5.02598 -37.7534 -5.2972 -19.9112 1.76713 -15.622 -87.8309 -46.6364 81.3563 -27.1241 -4.63145 -18.2569 -13.1185 29.2412 -0.0219141 4.60195 -0.380259 -15.435 2.78443 -0.471916 0.568041 -1.63583 -0.56792 -1.03012 
